<svg width="100" height="100" viewBox="0 0 100 100" fill="none" xmlns="http://www.w3.org/2000/svg">
<path d="M50 0.199951C22.5 0.199951 0 22.65 0 50.3C0 75.3 18.3 96.0499 42.2 99.7999V64.8H29.5V50.3H42.2V39.25C42.2 26.7 49.65 19.8 61.1 19.8C66.55 19.8 72.25 20.75 72.25 20.75V33.1H65.95C59.75 33.1 57.8 36.95 57.8 40.9V50.3H71.7L69.45 64.8H57.8V99.7999C69.5822 97.9392 80.311 91.9275 88.0496 82.8503C95.7882 73.773 100.027 62.2282 100 50.3C100 22.65 77.5 0.199951 50 0.199951Z" fill="#FFFDFD"/>
</svg>
