<svg width="18" height="16" viewBox="0 0 18 16" fill="none" xmlns="http://www.w3.org/2000/svg">
<path d="M9.00033 0.150024L6.61699 9.05002C6.33366 9.91669 6.53366 10.9084 7.21699 11.6C8.20033 12.575 9.78366 12.575 10.7587 11.6C11.417 10.9417 11.6337 10 11.4087 9.17502M11.167 1.79169L11.6837 3.73336C14.0337 4.76669 15.667 7.10836 15.667 9.83336C15.667 11.675 14.9253 13.3417 13.717 14.5417H13.7087C13.3837 14.8667 13.3837 15.3917 13.7087 15.7167C14.0337 16.0417 14.567 16.0417 14.892 15.725C16.4003 14.2167 17.3337 12.1334 17.3337 9.83336C17.3337 5.98336 14.717 2.75002 11.167 1.79169ZM6.83366 1.80002C3.29199 2.75002 0.666992 6.00002 0.666992 9.83336C0.666992 12.1334 1.60033 14.2167 3.10866 15.725C3.43366 16.0417 3.95866 16.0417 4.28366 15.7167C4.60866 15.3917 4.60866 14.8667 4.28366 14.5417C3.07533 13.3334 2.33366 11.675 2.33366 9.83336C2.33366 7.04169 3.95033 4.71669 6.32533 3.70836" fill="#C72940"/>
</svg>
