<svg width="18" height="16" viewBox="0 0 18 16" fill="none" xmlns="http://www.w3.org/2000/svg">
<path d="M14.6003 10.3C14.892 9.59168 15.0503 8.83335 15.0503 8.00002C15.0503 7.40002 14.9587 6.82502 14.8003 6.29168C14.2587 6.41668 13.692 6.48335 13.1003 6.48335C10.5503 6.48335 8.29199 5.22502 6.91699 3.28335C6.17533 5.08335 4.75866 6.55002 2.97533 7.35002C2.94199 7.55835 2.94199 7.78335 2.94199 8.00002C2.94199 9.60679 3.58028 11.1477 4.71644 12.2839C5.85259 13.4201 7.39356 14.0583 9.00033 14.0583C9.87533 14.0583 10.717 13.8667 11.4753 13.525C11.9503 14.4333 12.167 14.8833 12.1503 14.8833C10.7837 15.3417 9.72533 15.5667 9.00033 15.5667C6.98366 15.5667 5.05866 14.775 3.64199 13.35C2.77533 12.4833 2.13366 11.425 1.77533 10.275H0.666992V6.48335H1.57533C2.27533 3.03335 5.33366 0.43335 9.00033 0.43335C11.0003 0.43335 12.9253 1.22502 14.3503 2.65002C15.4087 3.70002 16.117 5.04168 16.4087 6.48335H17.3337V10.225V10.2417V10.275H17.2837L14.317 13L9.90032 12.5V11.1083H13.9253L14.6003 10.3ZM6.72533 7.80835C6.97533 7.80835 7.21699 7.90835 7.39199 8.09168C7.56699 8.26668 7.66699 8.50835 7.66699 8.75835C7.66699 9.00835 7.56699 9.25002 7.39199 9.42502C7.21699 9.60002 6.97533 9.70002 6.72533 9.70002C6.20033 9.70002 5.77533 9.28335 5.77533 8.75835C5.77533 8.23335 6.20033 7.80835 6.72533 7.80835ZM11.267 7.80835C11.792 7.80835 12.2087 8.23335 12.2087 8.75835C12.2087 9.28335 11.792 9.70002 11.267 9.70002C10.742 9.70002 10.317 9.28335 10.317 8.75835C10.317 8.50639 10.4171 8.26476 10.5952 8.0866C10.7734 7.90844 11.015 7.80835 11.267 7.80835Z" fill="#C72940"/>
</svg>
