<svg width="19" height="18" viewBox="0 0 19 18" fill="none" xmlns="http://www.w3.org/2000/svg">
<path d="M9 8C7.30833 8 5.75 8.55833 4.5 9.5L3 7.5C4.675 6.24167 6.75 5.5 9 5.5C11.25 5.5 13.325 6.24167 15 7.5L13.9333 8.91667C13.625 8.975 13.3167 9.05833 13.0333 9.175C11.8667 8.41667 10.4833 8 9 8ZM16.5 5.5L18 3.5C15.4917 1.61667 12.375 0.5 9 0.5C5.625 0.5 2.50833 1.61667 0 3.5L1.5 5.5C3.58333 3.93333 6.18333 3 9 3C11.8167 3 14.4167 3.93333 16.5 5.5ZM9 10.5C7.875 10.5 6.83333 10.875 6 11.5L9 15.5L9.86667 14.3417C9.83333 14.175 9.83333 14.0083 9.83333 13.8333C9.83333 12.7167 10.2 11.6917 10.825 10.8583C10.25 10.6333 9.64167 10.5 9 10.5ZM13.1667 10.5L11.0833 13H12.3333V16.3333H14V13H15.25L13.1667 10.5ZM17.3333 14.6667V11.3333H15.6667V14.6667H14.4167L16.5 17.1667L18.5833 14.6667H17.3333Z" fill="#C72940"/>
</svg>
