<svg width="100" height="100" viewBox="0 0 100 100" fill="none" xmlns="http://www.w3.org/2000/svg">
<path d="M50.2 0C22.9 0 0.650001 22.25 0.650001 49.55C0.650001 58.3 2.95 66.8 7.25 74.3L0.25 100L26.5 93.1C33.75 97.05 41.9 99.15 50.2 99.15C77.5 99.15 99.75 76.9 99.75 49.6C99.75 36.35 94.6 23.9 85.25 14.55C75.9 5.15 63.45 0 50.2 0ZM50.25 8.35C61.25 8.35 71.55 12.65 79.35 20.45C87.1 28.25 91.4 38.6 91.4 49.6C91.4 72.3 72.9 90.75 50.2 90.75C42.8 90.75 35.55 88.8 29.25 85L27.75 84.15L12.15 88.25L16.3 73.05L15.3 71.45C11.2 65 9 57.35 9 49.55C9.05 26.85 27.5 8.35 50.25 8.35ZM32.65 26.65C31.85 26.65 30.5 26.95 29.35 28.2C28.25 29.45 25 32.5 25 38.55C25 44.65 29.45 50.5 30 51.35C30.7 52.2 38.8 64.7 51.25 70C54.2 71.35 56.5 72.1 58.3 72.65C61.25 73.6 63.95 73.45 66.1 73.15C68.5 72.8 73.4 70.15 74.45 67.25C75.5 64.35 75.5 61.9 75.2 61.35C74.85 60.85 74.05 60.55 72.8 60C71.55 59.3 65.45 56.3 64.35 55.9C63.2 55.5 62.5 55.3 61.55 56.5C60.75 57.75 58.35 60.55 57.65 61.35C56.9 62.2 56.2 62.3 55 61.7C53.7 61.05 49.7 59.75 45 55.55C41.3 52.25 38.85 48.2 38.1 46.95C37.5 45.75 38.05 45 38.65 44.45C39.2 43.9 40 43 40.5 42.25C41.15 41.55 41.35 41 41.75 40.2C42.15 39.35 41.95 38.65 41.65 38.05C41.35 37.5 38.85 31.3 37.8 28.85C36.8 26.45 35.8 26.75 35 26.7C34.3 26.7 33.5 26.65 32.65 26.65Z" fill="#FFFDFD"/>
</svg>
